<?xml version="1.0" encoding="UTF-8"?>
<svg width="34px" height="34px" viewBox="0 0 34 34" version="1.1" xmlns="http://www.w3.org/2000/svg" xmlns:xlink="http://www.w3.org/1999/xlink">
    <!-- Generator: Sketch 46.2 (44496) - http://www.bohemiancoding.com/sketch -->
    <title>Features - Icon</title>
    <desc>Created with Sketch.</desc>
    <defs></defs>
    <g id="Page-1" stroke="none" stroke-width="1" fill="none" fill-rule="evenodd">
        <g id="Features---Icon" fill-rule="nonzero" fill="#462FF4">
            <g id="Group">
                <path d="M33.9354694,4.56502041 C33.9340816,4.51159184 33.9222857,4.45955102 33.9042449,4.4075102 C33.8993878,4.39432653 33.8952245,4.38114286 33.8889796,4.36865306 C33.8855102,4.35963265 33.8841224,4.34991837 33.8792653,4.34159184 L31.7546122,0.367061224 C31.5797551,0.0388571429 31.0399184,0.0388571429 30.8650612,0.367061224 L28.7417959,4.34159184 C28.7369388,4.34991837 28.735551,4.35963265 28.7313878,4.36865306 C28.7251429,4.38114286 28.7209796,4.39432653 28.7161224,4.4075102 C28.6980816,4.45885714 28.6862857,4.51089796 28.684898,4.56502041 C28.684898,4.56987755 28.6821224,4.57473469 28.6821224,4.57959184 L28.6821224,29.6549388 C28.6821224,29.9331837 28.9076327,30.1593878 29.1865714,30.1593878 L29.6348163,30.1593878 L29.6348163,32.8391429 C29.6348163,33.1180816 29.8603265,33.3442857 30.1392653,33.3442857 L32.4824898,33.3442857 C32.7607347,33.3442857 32.9869388,33.1187755 32.9869388,32.8391429 L32.9869388,30.1593878 L33.4344898,30.1593878 C33.7134286,30.1593878 33.9396327,29.9338776 33.9396327,29.6549388 L33.9396327,4.57959184 C33.9389388,4.57404082 33.9354694,4.56918367 33.9354694,4.56502041 Z M31.3105306,1.67710204 L32.5928163,4.07514286 L30.0282449,4.07514286 L31.3105306,1.67710204 Z M31.9773469,32.334 L30.6437143,32.334 L30.6437143,30.1586939 L31.9773469,30.1586939 L31.9773469,32.334 Z M32.9293469,29.1497959 L32.4817959,29.1497959 L31.8142857,29.1497959 L31.8142857,22.7279592 C32.0134286,22.5746122 32.1445714,22.3373061 32.1445714,22.0666939 C32.1445714,21.6059592 31.7705714,21.2319592 31.3098367,21.2319592 C30.8484082,21.2319592 30.4744082,21.6059592 30.4744082,22.0666939 C30.4744082,22.3373061 30.6048571,22.5746122 30.8046939,22.7272653 L30.8046939,29.1497959 L30.1378776,29.1497959 L29.6903265,29.1497959 L29.6903265,14.104449 L32.9286531,14.104449 L32.9286531,29.1497959 L32.9293469,29.1497959 Z M32.9293469,13.095551 L29.6910204,13.095551 L29.6910204,11.5815102 L32.9293469,11.5815102 L32.9293469,13.095551 Z M32.9293469,10.5719184 L29.6910204,10.5719184 L29.6910204,9.05787755 L32.9293469,9.05787755 L32.9293469,10.5719184 Z M32.9293469,8.04828571 L29.6910204,8.04828571 L29.6910204,5.08473469 L32.9293469,5.08473469 L32.9293469,8.04828571 Z" id="Shape"></path>
                <path d="M26.7420408,5.78693878 C26.7364898,5.77097959 26.7323265,5.75502041 26.7253878,5.7397551 C26.701102,5.68632653 26.6698776,5.63497959 26.6268571,5.59195918 L21.2201633,0.185265306 C21.1771429,0.14155102 21.1257959,0.111020408 21.0723673,0.0860408163 C21.057102,0.0791020408 21.0418367,0.0749387755 21.0258776,0.0693877551 C20.9828571,0.0548163265 20.9391429,0.0464897959 20.8947347,0.0437142857 C20.8836327,0.0430204082 20.8746122,0.0374693878 20.8635102,0.0374693878 L4.32216327,0.0374693878 C4.04391837,0.0374693878 3.81702041,0.262979592 3.81702041,0.542612245 L3.81702041,3.22236735 L1.13726531,3.22236735 C0.859020408,3.22236735 0.632816327,3.44718367 0.632816327,3.72681633 L0.632816327,32.8391429 C0.632816327,33.1180816 0.859020408,33.3442857 1.13726531,33.3442857 L23.0853061,33.3442857 C23.3642449,33.3442857 23.590449,33.1187755 23.590449,32.8391429 L23.590449,30.1593878 L26.270898,30.1593878 C26.5491429,30.1593878 26.7753469,29.9338776 26.7753469,29.6549388 L26.7753469,5.94861224 C26.7753469,5.93820408 26.7704898,5.9284898 26.769102,5.91808163 C26.7649388,5.87297959 26.7566122,5.82995918 26.7420408,5.78693878 Z M25.0510612,5.44346939 L21.3672653,5.44346939 L21.3672653,1.75967347 L25.0510612,5.44346939 Z M22.5801633,32.334 L1.64171429,32.334 L1.64171429,4.23126531 L3.81702041,4.23126531 L3.81702041,29.6549388 C3.81702041,29.9331837 4.04322449,30.1593878 4.32216327,30.1593878 L22.5808571,30.1593878 L22.5808571,32.334 L22.5801633,32.334 Z M4.82591837,29.1497959 L4.82591837,1.04706122 L20.3583673,1.04706122 L20.3583673,5.94791837 C20.3583673,6.22685714 20.5838776,6.45306122 20.8628163,6.45306122 L25.7650612,6.45306122 L25.7650612,29.1497959 L4.82591837,29.1497959 Z" id="Shape"></path>
                <path d="M8.48265306,6.45306122 L16.9077143,6.45306122 C17.1866531,6.45306122 17.4128571,6.22755102 17.4128571,5.94791837 C17.4128571,5.66967347 17.1866531,5.44277551 16.9077143,5.44277551 L8.48265306,5.44277551 C8.20440816,5.44277551 7.97820408,5.66897959 7.97820408,5.94791837 C7.97820408,6.22755102 8.20440816,6.45306122 8.48265306,6.45306122 Z" id="Shape"></path>
                <path d="M22.1076327,10.4914286 L14.0343673,10.4914286 C13.7554286,10.4914286 13.5292245,10.7169388 13.5292245,10.9965714 C13.5292245,11.2748163 13.7554286,11.5010204 14.0343673,11.5010204 L22.1076327,11.5010204 C22.3865714,11.5010204 22.6127755,11.2755102 22.6127755,10.9965714 C22.6127755,10.7169388 22.3872653,10.4914286 22.1076327,10.4914286 Z" id="Shape"></path>
                <path d="M11.0055918,9.22926531 L8.48265306,9.22926531 C8.20440816,9.22926531 7.97820408,9.45477551 7.97820408,9.73371429 L7.97820408,12.2573469 C7.97820408,12.5362857 8.20440816,12.7624898 8.48265306,12.7624898 L11.0055918,12.7624898 C11.2845306,12.7624898 11.5100408,12.5369796 11.5100408,12.2573469 L11.5100408,9.73371429 C11.5100408,9.45477551 11.2845306,9.22926531 11.0055918,9.22926531 Z M10.5011429,11.7522041 L8.98710204,11.7522041 L8.98710204,10.2381633 L10.5011429,10.2381633 L10.5011429,11.7522041 Z" id="Shape"></path>
                <path d="M22.1076327,16.0431429 L14.0343673,16.0431429 C13.7554286,16.0431429 13.5292245,16.2686531 13.5292245,16.5475918 C13.5292245,16.8265306 13.7554286,17.0520408 14.0343673,17.0520408 L22.1076327,17.0520408 C22.3865714,17.0520408 22.6127755,16.8272245 22.6127755,16.5475918 C22.6127755,16.2686531 22.3872653,16.0431429 22.1076327,16.0431429 Z" id="Shape"></path>
                <path d="M11.0055918,14.7809796 L8.48265306,14.7809796 C8.20440816,14.7809796 7.97820408,15.0057959 7.97820408,15.2854286 L7.97820408,17.8090612 C7.97820408,18.088 8.20440816,18.3142041 8.48265306,18.3142041 L11.0055918,18.3142041 C11.2845306,18.3142041 11.5100408,18.0886939 11.5100408,17.8090612 L11.5100408,15.2854286 C11.5100408,15.0057959 11.2845306,14.7809796 11.0055918,14.7809796 Z M10.5011429,17.3039184 L8.98710204,17.3039184 L8.98710204,15.7898776 L10.5011429,15.7898776 L10.5011429,17.3039184 Z" id="Shape"></path>
                <path d="M22.1076327,21.5948571 L14.0343673,21.5948571 C13.7554286,21.5948571 13.5292245,21.8203673 13.5292245,22.1 C13.5292245,22.3782449 13.7554286,22.604449 14.0343673,22.604449 L22.1076327,22.604449 C22.3865714,22.604449 22.6127755,22.3789388 22.6127755,22.1 C22.6127755,21.8203673 22.3872653,21.5948571 22.1076327,21.5948571 Z" id="Shape"></path>
                <path d="M11.0055918,20.3326939 L8.48265306,20.3326939 C8.20440816,20.3326939 7.97820408,20.5582041 7.97820408,20.8378367 L7.97820408,23.3614694 C7.97820408,23.6397143 8.20440816,23.8659184 8.48265306,23.8659184 L11.0055918,23.8659184 C11.2845306,23.8659184 11.5100408,23.6404082 11.5100408,23.3614694 L11.5100408,20.8378367 C11.5100408,20.5582041 11.2845306,20.3326939 11.0055918,20.3326939 Z M10.5011429,22.8563265 L8.98710204,22.8563265 L8.98710204,21.3422857 L10.5011429,21.3422857 L10.5011429,22.8563265 Z" id="Shape"></path>
            </g>
        </g>
    </g>
</svg>