<?xml version="1.0" encoding="UTF-8"?>
<svg width="34px" height="34px" viewBox="0 0 34 34" version="1.1" xmlns="http://www.w3.org/2000/svg" xmlns:xlink="http://www.w3.org/1999/xlink">
    <!-- Generator: Sketch 46.2 (44496) - http://www.bohemiancoding.com/sketch -->
    <title>Features - Icon</title>
    <desc>Created with Sketch.</desc>
    <defs></defs>
    <g id="Page-1" stroke="none" stroke-width="1" fill="none" fill-rule="evenodd">
        <g id="Features---Icon" fill-rule="nonzero" fill="#462FF4">
            <g id="Course" transform="translate(1.000000, 0.000000)">
                <path d="M31.2577959,9.52693878 C31.2550204,9.48114286 31.246,9.43742857 31.2314286,9.39440816 C31.2251837,9.3777551 31.2210204,9.36110204 31.2133878,9.34514286 C31.1904898,9.29587755 31.1606531,9.24938776 31.1217959,9.20914286 C31.1190204,9.20636735 31.1176327,9.20289796 31.1148571,9.20012245 C30.0102041,8.09408163 29.3898776,6.63902041 29.3697551,5.1 C29.3489388,3.56583673 29.9276327,2.13228571 30.9982857,1.06163265 C31.1426122,0.917306122 31.1863265,0.700122449 31.1079184,0.512081633 C31.0302041,0.323346939 30.8456327,0.199836735 30.6416327,0.199836735 L4.12787755,0.199836735 C2.18918367,0.199836735 0.612,1.77702041 0.612,3.71640816 L0.612,6.54673469 L0.612,29.9900816 C0.612,31.9287755 2.18918367,33.5052653 4.12787755,33.5052653 L4.15008163,33.5052653 L30.7602857,33.5052653 C31.0385306,33.5052653 31.2647347,33.2797551 31.2647347,33.0008163 L31.2647347,9.55746939 C31.2647347,9.54636735 31.2591837,9.53804082 31.2577959,9.52693878 Z M4.12787755,1.20873469 L29.5577959,1.20873469 C29.1275918,1.81865306 28.8111837,2.49518367 28.6106531,3.21195918 L4.14938776,3.21195918 C3.87044898,3.21195918 3.64493878,3.43746939 3.64493878,3.71640816 C3.64493878,3.99534694 3.87044898,4.22085714 4.14938776,4.22085714 L28.4108163,4.22085714 C28.3761224,4.51506122 28.356,4.81273469 28.3601633,5.11457143 C28.3643265,5.42404082 28.3934694,5.73073469 28.4378776,6.03257143 L9.19595918,6.03257143 C8.91702041,6.03257143 8.69081633,6.25877551 8.69081633,6.53771429 C8.69081633,6.81665306 8.91702041,7.04285714 9.19595918,7.04285714 L28.6668571,7.04285714 C28.8882041,7.75963265 29.2219592,8.43893878 29.6674286,9.05440816 L4.1264898,9.05440816 C2.74428571,9.05440816 1.62020408,7.93032653 1.62020408,6.54742857 L1.62020408,3.71710204 C1.62089796,2.3335102 2.74567347,1.20873469 4.12787755,1.20873469 Z M1.62089796,29.9893878 L1.62089796,9.00722449 C2.15240816,9.54914286 2.85738776,9.91689796 3.64493878,10.0258367 L3.64493878,32.447102 C2.49310204,32.2215918 1.62089796,31.2057551 1.62089796,29.9893878 Z M4.65453061,32.4963673 L4.65453061,10.0626122 L30.2558367,10.0626122 L30.2558367,32.4963673 L4.65453061,32.4963673 L4.65453061,32.4963673 Z" id="Shape"></path>
                <path d="M25.1502857,13.8373061 L9.75869388,13.8373061 C9.4797551,13.8373061 9.2542449,14.0635102 9.2542449,14.3431429 L9.2542449,23.4266939 C9.2542449,23.7042449 9.4797551,23.9311429 9.75869388,23.9311429 L25.1502857,23.9311429 C25.4292245,23.9311429 25.6547347,23.7049388 25.6547347,23.4266939 L25.6547347,14.342449 C25.6547347,14.0635102 25.4292245,13.8373061 25.1502857,13.8373061 Z M24.6465306,22.921551 L10.2638367,22.921551 L10.2638367,14.846898 L24.6465306,14.846898 L24.6465306,22.921551 Z" id="Shape"></path>
                <path d="M12.6611837,17.8742857 L22.2491837,17.8742857 C22.5281224,17.8742857 22.7543265,17.6487755 22.7543265,17.3691429 C22.7543265,17.0915918 22.5288163,16.8646939 22.2491837,16.8646939 L12.6611837,16.8646939 C12.3822449,16.8646939 12.1560408,17.090898 12.1560408,17.3691429 C12.1560408,17.6487755 12.3822449,17.8742857 12.6611837,17.8742857 Z" id="Shape"></path>
                <path d="M12.6611837,20.9030612 L20.23,20.9030612 C20.5089388,20.9030612 20.734449,20.677551 20.734449,20.3979184 C20.734449,20.1182857 20.5089388,19.8927755 20.23,19.8927755 L12.6611837,19.8927755 C12.3822449,19.8927755 12.1560408,20.1182857 12.1560408,20.3979184 C12.1560408,20.677551 12.3822449,20.9030612 12.6611837,20.9030612 Z" id="Shape"></path>
            </g>
        </g>
    </g>
</svg>