<?xml version="1.0" encoding="UTF-8"?>
<svg width="34px" height="34px" viewBox="0 0 34 34" version="1.1" xmlns="http://www.w3.org/2000/svg" xmlns:xlink="http://www.w3.org/1999/xlink">
    <!-- Generator: Sketch 46.2 (44496) - http://www.bohemiancoding.com/sketch -->
    <title>Features - Icon</title>
    <desc>Created with Sketch.</desc>
    <defs></defs>
    <g id="Page-1" stroke="none" stroke-width="1" fill="none" fill-rule="evenodd">
        <g id="Features---Icon" fill-rule="nonzero" fill="#462FF4">
            <g id="Report">
                <path d="M33.2832245,23.4683265 L32.2736327,23.4683265 L32.2736327,1.2642449 L33.2832245,1.2642449 C33.5621633,1.2642449 33.7876735,1.03804082 33.7876735,0.759102041 C33.7876735,0.480163265 33.5621633,0.253959184 33.2832245,0.253959184 L31.7691837,0.253959184 L2.50004082,0.253959184 L0.986,0.253959184 C0.707061224,0.253959184 0.480857143,0.480163265 0.480857143,0.759102041 C0.480857143,1.03804082 0.706367347,1.2642449 0.986,1.2642449 L1.99559184,1.2642449 L1.99559184,23.4683265 L0.986,23.4683265 C0.707061224,23.4683265 0.480857143,23.6931429 0.480857143,23.9727755 C0.480857143,24.2524082 0.706367347,24.4779184 0.986,24.4779184 L2.50004082,24.4779184 L10.302,24.4779184 L8.5957551,28.3178367 C8.59506122,28.3178367 8.59506122,28.3192245 8.59506122,28.3192245 L6.58004082,32.8516327 C6.46693878,33.1055918 6.58142857,33.4046531 6.83608163,33.5170612 C6.90269388,33.5475918 6.97208163,33.5607755 7.04077551,33.5607755 C7.23436735,33.5607755 7.41893878,33.4490612 7.50220408,33.2603265 L9.38816327,29.0186531 L24.8817551,29.0186531 L26.7677143,33.2603265 C26.8509796,33.4483673 27.035551,33.5607755 27.2291429,33.5607755 C27.2978367,33.5607755 27.3672245,33.546898 27.4338367,33.5170612 C27.6884898,33.4046531 27.8029796,33.1055918 27.6898776,32.8516327 L23.9679184,24.4779184 L31.7691837,24.4779184 L33.2832245,24.4779184 C33.5621633,24.4779184 33.7876735,24.2524082 33.7876735,23.9727755 C33.7876735,23.6931429 33.5621633,23.4683265 33.2832245,23.4683265 Z M24.4335102,28.0097551 L9.83640816,28.0097551 L11.4066531,24.4772245 L22.8625714,24.4772245 L24.4335102,28.0097551 Z M3.00518367,23.4683265 L3.00518367,1.2642449 L31.2647347,1.2642449 L31.2647347,23.4683265 L3.00518367,23.4683265 Z" id="Shape"></path>
                <path d="M28.9527347,4.7322449 C28.9437143,4.69893878 28.9360816,4.66702041 28.9208163,4.6364898 C28.9159592,4.62677551 28.9159592,4.61636735 28.9104082,4.60734694 C28.8993061,4.58861224 28.8819592,4.5775102 28.8687755,4.56085714 C28.8479592,4.53310204 28.8271429,4.50673469 28.8014694,4.48453061 C28.7757959,4.46302041 28.7487347,4.44636735 28.7202857,4.43040816 C28.6932245,4.41444898 28.6668571,4.40057143 28.6370204,4.38946939 C28.6030204,4.37767347 28.5690204,4.37281633 28.5329388,4.36865306 C28.5128163,4.36657143 28.4954694,4.35685714 28.4746531,4.35685714 C28.4642449,4.35685714 28.4552245,4.36240816 28.4448163,4.36310204 C28.4108163,4.3644898 28.3782041,4.37420408 28.3442041,4.38253061 C28.3115918,4.3922449 28.2796735,4.39987755 28.2505306,4.41514286 C28.2401224,4.42 28.2297143,4.41930612 28.22,4.42555102 L24.9768163,6.31567347 C24.9608571,6.32469388 24.9518367,6.34134694 24.9372653,6.35244898 C24.9025714,6.37812245 24.8713469,6.40518367 24.8449796,6.4384898 C24.8359592,6.44959184 24.8227755,6.45444898 24.8158367,6.4662449 L21.8078776,10.8473878 L18.9456327,9.59632653 C18.9449388,9.59632653 18.943551,9.59632653 18.9428571,9.59563265 C18.9331429,9.59146939 18.9227347,9.59146939 18.9130204,9.588 C18.8623673,9.57065306 18.8117143,9.55816327 18.7582857,9.55677551 C18.7534286,9.55677551 18.7485714,9.554 18.7437143,9.554 C18.7263673,9.554 18.711102,9.56232653 18.6937551,9.56440816 C18.6632245,9.56787755 18.6326939,9.56579592 18.6028571,9.57481633 L15.3582857,10.5191837 C15.3457959,10.5233469 15.3353878,10.5302857 15.322898,10.534449 C15.3083265,10.54 15.2958367,10.545551 15.2826531,10.5517959 C15.2340816,10.5746939 15.1882857,10.6031429 15.1494286,10.6413061 C15.1466531,10.6440816 15.1431837,10.6454694 15.1404082,10.6482449 C15.1404082,10.6489388 15.1390204,10.6496327 15.1383265,10.6496327 L12.1692245,13.6770204 L9.26395918,11.9846531 C9.25355102,11.979102 9.24244898,11.9784082 9.23273469,11.9728571 C9.20914286,11.9610612 9.18485714,11.9548163 9.15987755,11.9464898 C9.12240816,11.934 9.08632653,11.9263673 9.04816327,11.9235918 C9.03497959,11.922898 9.02387755,11.9159592 9.01069388,11.9159592 C8.99820408,11.9159592 8.98710204,11.9222041 8.97530612,11.9235918 C8.93506122,11.9263673 8.89759184,11.9346939 8.85942857,11.9464898 C8.83722449,11.9541224 8.81502041,11.9596735 8.79420408,11.9693878 C8.76020408,11.9853469 8.73036735,12.0089388 8.69983673,12.0325306 C8.68040816,12.0477959 8.66028571,12.0609796 8.64363265,12.0790204 C8.63877551,12.0838776 8.63253061,12.0866531 8.62767347,12.0922041 L5.38379592,15.8717551 C5.36783673,15.8904898 5.36228571,15.9140816 5.34979592,15.9335102 C5.33036735,15.9640408 5.30955102,15.9924898 5.29706122,16.0278776 C5.28457143,16.0611837 5.28179592,16.0951837 5.2762449,16.1298776 C5.27277551,16.1541633 5.26167347,16.1749796 5.26167347,16.2013469 L5.26167347,20.9259592 C5.26167347,21.2042041 5.48718367,21.4304082 5.76612245,21.4304082 C6.04506122,21.4304082 6.27126531,21.204898 6.27126531,20.9259592 L6.27126531,16.388 L8.5062449,13.7838776 L8.5062449,20.9259592 C8.5062449,21.2042041 8.7317551,21.4304082 9.01069388,21.4304082 C9.28963265,21.4304082 9.51583673,21.204898 9.51583673,20.9259592 L9.51583673,13.2988571 L11.7501224,14.6012653 L11.7501224,20.9259592 C11.7501224,21.2042041 11.9756327,21.4304082 12.2552653,21.4304082 C12.5342041,21.4304082 12.7597143,21.204898 12.7597143,20.9259592 L12.7597143,14.5173061 L14.9946939,12.2393061 L14.9946939,20.9266531 C14.9946939,21.204898 15.2202041,21.431102 15.4998367,21.431102 C15.7787755,21.431102 16.0042857,21.2055918 16.0042857,20.9266531 L16.0042857,11.3830612 L18.2392653,10.7322041 L18.2392653,20.9266531 C18.2392653,21.204898 18.4647755,21.431102 18.7437143,21.431102 C19.0226531,21.431102 19.2488571,21.2055918 19.2488571,20.9266531 L19.2488571,10.8307347 L21.4838367,11.8070204 L21.4838367,20.9266531 C21.4838367,21.204898 21.7093469,21.431102 21.9882857,21.431102 C22.2665306,21.431102 22.4934286,21.2055918 22.4934286,20.9266531 L22.4934286,11.6328571 L24.7277143,8.37857143 L24.7277143,20.9266531 C24.7277143,21.204898 24.9532245,21.431102 25.2328571,21.431102 C25.5117959,21.431102 25.7373061,21.2055918 25.7373061,20.9266531 L25.7373061,7.04077551 L27.9722857,5.73906122 L27.9722857,20.9259592 C27.9722857,21.2042041 28.1977959,21.4304082 28.4767347,21.4304082 C28.7549796,21.4304082 28.9811837,21.204898 28.9811837,20.9259592 L28.9811837,4.86061224 C28.9811837,4.8495102 28.9763265,4.8404898 28.9749388,4.83008163 C28.9700816,4.79677551 28.9617551,4.76485714 28.9527347,4.7322449 Z" id="Shape"></path>
                <path d="M5.76542857,4.48244898 L15.498449,4.48244898 C15.7773878,4.48244898 16.002898,4.2562449 16.002898,3.97730612 C16.002898,3.69836735 15.7773878,3.47216327 15.498449,3.47216327 L5.76542857,3.47216327 C5.4864898,3.47216327 5.26097959,3.69836735 5.26097959,3.97730612 C5.26097959,4.2562449 5.4864898,4.48244898 5.76542857,4.48244898 Z" id="Shape"></path>
                <path d="M5.76542857,7.44738776 L15.498449,7.44738776 C15.7773878,7.44738776 16.002898,7.22187755 16.002898,6.94293878 C16.002898,6.664 15.7773878,6.43779592 15.498449,6.43779592 L5.76542857,6.43779592 C5.4864898,6.43779592 5.26097959,6.664 5.26097959,6.94293878 C5.26097959,7.22187755 5.4864898,7.44738776 5.76542857,7.44738776 Z" id="Shape"></path>
                <path d="M5.76542857,10.4123265 L12.2538776,10.4123265 C12.5328163,10.4123265 12.7583265,10.1861224 12.7583265,9.90718367 C12.7583265,9.6282449 12.5328163,9.40273469 12.2538776,9.40273469 L5.76542857,9.40273469 C5.4864898,9.40273469 5.26097959,9.6282449 5.26097959,9.90718367 C5.26097959,10.1861224 5.4864898,10.4123265 5.76542857,10.4123265 Z" id="Shape"></path>
            </g>
        </g>
    </g>
</svg>