<?xml version="1.0" encoding="UTF-8"?>
<svg width="35px" height="38px" viewBox="0 0 35 38" version="1.1" xmlns="http://www.w3.org/2000/svg" xmlns:xlink="http://www.w3.org/1999/xlink">
    <!-- Generator: Sketch 46.2 (44496) - http://www.bohemiancoding.com/sketch -->
    <title>Artboard 3</title>
    <desc>Created with Sketch.</desc>
    <defs></defs>
    <g id="Page-1" stroke="none" stroke-width="1" fill="none" fill-rule="evenodd">
        <g id="Artboard-3" fill-rule="nonzero" fill="#151C2D">
            <g id="l5-feature-icon1">
                <path d="M18,21.357 C14.172,21.357 10.064,17.627 9.703,11.544 C10.243,11.622 10.778,11.674 11.309,11.674 C14.418,11.674 17.347,10.562 19.643,8.53 C21.5136484,10.1724626 23.829861,11.2225022 26.298,11.547 C25.935,17.627 21.828,21.357 18,21.357 L18,21.357 Z M18,0 C11.823,0 8,5.543 8,10.679 C8,18.289 13.19,23 18,23 C22.81,23 28,18.29 28,10.679 C28,5.543 24.177,0 18,0 Z" id="Shape"></path>
                <g id="Group" opacity="0.5" transform="translate(0.000000, 22.000000)">
                    <path d="M32.977,5.183 L24.313,0 C22.282,1.748 19.854,2.709 17.5,2.709 C15.146,2.709 12.718,1.748 10.687,0 L2.023,5.183 C0.772515477,5.93424684 0.00538482961,7.28421476 0,8.743 L0,15.169 C0,15.629 0.373,16 0.833,16 L16.667,16 L16.667,7.693 C16.667,7.233 17.039,6.863 17.5,6.863 C17.96,6.863 18.333,7.233 18.333,7.693 L18.333,16 L34.167,16 C34.627,16 35,15.629 35,15.17 L35,8.744 C35,7.294 34.225,5.929 32.977,5.183 L32.977,5.183 Z" id="Shape"></path>
                </g>
            </g>
        </g>
    </g>
</svg>