<?xml version="1.0" encoding="UTF-8"?>
<svg width="34px" height="34px" viewBox="0 0 34 34" version="1.1" xmlns="http://www.w3.org/2000/svg" xmlns:xlink="http://www.w3.org/1999/xlink">
    <!-- Generator: Sketch 46.2 (44496) - http://www.bohemiancoding.com/sketch -->
    <title>Features - Icon</title>
    <desc>Created with Sketch.</desc>
    <defs></defs>
    <g id="Page-1" stroke="none" stroke-width="1" fill="none" fill-rule="evenodd">
        <g id="Features---Icon" fill-rule="nonzero" fill="#462FF4">
            <path d="M27.8175038,21.8048791 C27.070936,21.4429283 26.2563697,21.1114352 25.3950543,20.8132331 C26.7847753,18.545197 27.6432574,15.792671 27.6432574,12.8772317 C27.6432574,5.89746047 22.5709881,0 16.5679882,0 C10.5649882,0 5.4927189,5.89675215 5.4927189,12.8772317 C5.4927189,15.7891294 6.33703465,18.5508635 7.72108914,20.8203162 C6.86756526,21.1171017 6.06008208,21.4464699 5.31776421,21.8055874 C3.30259786,22.7816504 2,24.8867732 2,27.1682673 L2,29.8690861 C2,30.0185413 2.06516531,30.1594967 2.17778796,30.257953 C2.35415929,30.4109498 6.60832066,34 16.5658632,34 L16.5658632,34 L16.5665715,34 L16.5665715,34 L16.5665715,34 L16.5672798,34 L16.5672798,34 C26.5248224,34 30.7782755,30.4109498 30.9553551,30.257953 C31.0679778,30.1594967 31.1324347,30.0185413 31.1324347,29.8690861 L31.1324347,27.1682673 C31.1345597,24.8853566 29.8326702,22.7809421 27.8175038,21.8048791 Z M16.5679882,1.03060353 C22.0135414,1.03060353 26.6133622,6.45490719 26.6133622,12.8772317 C26.6133622,15.6566738 25.7428387,18.3142851 24.3573676,20.4739485 C24.000375,20.3655757 23.6745484,20.2734943 23.360055,20.1920377 C23.360055,20.1920377 23.360055,20.1920377 23.3593467,20.1920377 C23.3550968,20.190621 23.3494302,20.190621 23.344472,20.1884961 C23.344472,20.1877878 23.3437637,20.1877878 23.3437637,20.1877878 C22.7657757,20.0397492 22.177163,19.9235849 21.5850086,19.8180455 C20.8901481,19.0962688 20.5692798,18.2951605 20.4354076,17.584717 C21.6317577,16.5668632 22.5497385,15.1119768 23.0646862,13.3985542 C23.3097644,13.3765963 23.5484677,13.2731818 23.7630883,13.0946855 C24.2334118,12.7065269 24.5578217,11.9868753 24.6300702,11.1687673 C24.7412762,9.9249599 24.2617445,8.90568946 23.4946355,8.67761088 C23.4910939,8.38649195 23.4854274,8.06774859 23.4797608,7.92962647 C23.4726777,7.7822962 23.4032624,7.6448824 23.2885148,7.55138435 C23.1730589,7.45859461 23.0250203,7.41822045 22.8783984,7.44442824 C18.9663549,8.10387284 16.607654,5.84433658 16.5106144,5.74871357 C16.4135747,5.65309056 16.2839524,5.59925835 16.1479553,5.59925835 C12.6467365,5.59925835 9.94450116,7.68738151 9.76600487,7.91333514 C9.69658965,8.00045832 9.65834045,8.10812275 9.65479886,8.22003708 C9.65338222,8.2894523 9.65125727,8.48140664 9.65054895,8.6783192 C8.88343993,8.90639778 8.40532489,9.92566822 8.51582259,11.1687673 C8.5887794,11.986167 8.91318931,12.7065269 9.38280452,13.0946855 C9.59884169,13.2731818 9.83683673,13.375888 10.0826233,13.3985542 C10.5947376,15.1027687 11.5056353,16.5512802 12.6913606,17.5684257 C12.5596133,18.2866607 12.2401617,19.0948522 11.5431762,19.8194621 C10.9538551,19.9228766 10.3680757,20.0418741 9.79292098,20.1884961 L9.79292098,20.1884961 C9.78725443,20.190621 9.78158788,20.1913293 9.77592133,20.192746 C9.45788629,20.2749109 9.12851816,20.368409 8.76656736,20.4789067 C7.38463782,18.318535 6.52261411,15.6545489 6.52261411,12.8786484 C6.52261411,6.45490719 11.1224349,1.03060353 16.5679882,1.03060353 Z M11.473761,20.8713152 C12.0510406,22.0910398 14.2149539,22.9884794 15.5345514,23.4361367 L13.3529301,25.3365555 C13.3132643,25.3124727 13.2693486,25.2841399 13.2225995,25.2536822 C13.2098498,25.2451824 13.1942668,25.2345576 13.1808087,25.2253495 C13.1461011,25.2012666 13.1106852,25.1778921 13.0731443,25.150976 C13.0554363,25.137518 13.0348951,25.121935 13.0164788,25.1084769 C12.9803546,25.0808525 12.9449386,25.0546447 12.9073978,25.0256036 C12.8854399,25.0078957 12.8627737,24.9880627 12.8401075,24.9703548 C12.8032749,24.9398971 12.765734,24.9094394 12.7267765,24.8761484 C12.7026937,24.8556072 12.6771942,24.8315243 12.6524031,24.8095665 C12.6134456,24.7741505 12.5751964,24.7394429 12.5355305,24.701902 C12.5086144,24.6771109 12.4816983,24.6494865 12.4547822,24.6232787 C12.4158247,24.5843212 12.3761588,24.5453636 12.336493,24.5035728 C12.3081602,24.4738235 12.2791192,24.4419491 12.2500781,24.4100748 C12.2104123,24.3668674 12.1707464,24.3229516 12.1310806,24.2769109 C12.1013312,24.2429116 12.0722902,24.2067874 12.0418325,24.1713714 C12.0021666,24.1232058 11.9625008,24.0729151 11.9228349,24.0226245 C11.8923772,23.9829587 11.8626279,23.9432928 11.8314618,23.9022104 C11.791796,23.8490865 11.7528385,23.7938376 11.7131726,23.7371721 C11.6827149,23.6939647 11.6529656,23.6493406 11.6225079,23.6040082 C11.5835503,23.5452178 11.5453011,23.4835941 11.5063436,23.4212621 C11.4765942,23.3730964 11.4461365,23.3235141 11.4163872,23.2725152 C11.3788463,23.2080582 11.3413054,23.1414762 11.3044728,23.0734776 C11.2747234,23.0203537 11.2456824,22.9665215 11.2166413,22.9105644 C11.1805171,22.8397325 11.1443928,22.7660674 11.1096852,22.6909856 C11.0813525,22.6329035 11.0530197,22.574113 11.0261036,22.5124893 C10.991396,22.4359909 10.9573967,22.353826 10.9241057,22.271661 C10.897898,22.209329 10.8716902,22.1469969 10.846899,22.0818316 C10.8143164,21.9961251 10.7831504,21.9054603 10.7519843,21.8147955 C10.7286098,21.7475053 10.704527,21.6816316 10.6818608,21.6129247 C10.6514031,21.51801 10.6230704,21.4181371 10.5940293,21.3182642 C10.5734881,21.2474323 10.5529468,21.1801421 10.5338222,21.1078936 C10.5302806,21.0951439 10.5281557,21.0816858 10.5246141,21.0689361 C10.8376909,20.993146 11.1550176,20.9301056 11.473761,20.8713152 Z M19.4111789,17.0846441 C17.6786317,18.3426179 15.4615946,18.3397846 13.7325889,17.0818108 C12.4186579,16.1248724 11.4333868,14.5686965 10.958105,12.6987354 C10.9198558,12.5492802 10.7973167,12.4302827 10.657778,12.3644091 C10.591196,12.3332431 10.5161142,12.3190767 10.4396158,12.3190767 C10.3560342,12.3190767 10.271036,12.3367847 10.1980792,12.3714923 C10.1407054,12.3799921 10.0755401,12.3289931 10.0394158,12.2992438 C9.83117018,12.1271224 9.59671674,11.6822983 9.5421762,11.0759776 C9.46851107,10.2451199 9.77946293,9.67846503 10.0103748,9.66996521 C10.1669132,9.71883919 10.3362013,9.68979813 10.4686569,9.59275848 C10.6004042,9.49571884 10.6783192,9.34201371 10.6783192,9.17839212 C10.6783192,9.07639424 10.6797358,8.73002646 10.6818608,8.48282327 C11.2400158,8.07270682 13.3061811,6.69786046 15.9510427,6.63198683 C16.5779046,7.17385054 18.9047312,8.92198079 22.4611987,8.5409054 C22.464032,8.79306681 22.466157,9.05301973 22.466157,9.17839212 C22.466157,9.34201371 22.5660299,9.49146893 22.6984854,9.58850857 C22.830941,9.68625654 23.024312,9.70963105 23.1794338,9.66075707 C23.3671382,9.68342326 23.6759651,10.2486615 23.6015916,11.0766859 C23.5477594,11.6822983 23.313306,12.1271224 23.1050603,12.2999521 C23.0696444,12.3297015 22.9981042,12.3778671 22.9095644,12.3615758 C22.7700256,12.2949939 22.6078207,12.2935772 22.4675736,12.3587425 C22.3273265,12.4239078 22.2246203,12.5492802 22.1863711,12.6987354 C21.7139226,14.5708214 20.7272348,16.1277057 19.4111789,17.0846441 Z M13.5937585,18.2222037 C14.5188225,18.7796504 15.5388013,19.074311 16.5736547,19.074311 C17.5993,19.074311 18.6100706,18.7839003 19.5301765,18.2349534 C19.7263807,18.9546051 20.0918731,19.7217141 20.7470678,20.4342826 C20.4389492,21.2056415 18.2488281,22.1902044 16.5679882,22.6831941 C14.8828983,22.1909127 12.6871107,21.2021 12.3867836,20.4293244 C13.0398533,19.7181725 13.3989709,18.945397 13.5937585,18.2222037 Z M21.6600904,20.8755651 C21.9781255,20.9371888 22.2982855,20.993146 22.6120706,21.0675194 C22.6092373,21.0802692 22.606404,21.0930189 22.6035708,21.1050603 C22.5844462,21.1787254 22.5624883,21.2474323 22.5426554,21.3189725 C22.5136143,21.4181371 22.4859899,21.5173017 22.4555322,21.6115081 C22.432866,21.68234 22.4087832,21.7482136 22.3847003,21.8162122 C22.3535343,21.9054603 22.3230766,21.9954168 22.2904939,22.080415 C22.2657028,22.1455803 22.239495,22.209329 22.2125789,22.2723693 C22.1792879,22.3524093 22.145997,22.4345743 22.1112893,22.5124893 C22.0836649,22.5726964 22.0553322,22.6314868 22.0277078,22.6902773 C21.9922918,22.7639424 21.9568759,22.8383159 21.9207517,22.9091477 C21.8917106,22.9658132 21.8626695,23.0196454 21.8329201,23.0734776 C21.7960876,23.1407679 21.759255,23.2073498 21.7210058,23.2725152 C21.6912564,23.3228058 21.6607987,23.3723881 21.6310494,23.4205537 C21.5928001,23.4828858 21.5545509,23.5438012 21.5155934,23.6018833 C21.4851357,23.6472157 21.454678,23.6932564 21.4242203,23.7371721 C21.3845545,23.792421 21.345597,23.8476698 21.3059311,23.9000854 C21.2754734,23.9418762 21.2450157,23.9822504 21.214558,24.0212079 C21.1748922,24.0722068 21.1359347,24.1217891 21.0955605,24.1692465 C21.0658111,24.206079 21.0353534,24.2422033 21.005604,24.2762026 C20.9659382,24.321535 20.9269807,24.3647424 20.8880232,24.4086582 C20.8582738,24.4398242 20.8292327,24.4724068 20.8001917,24.5028645 C20.7605258,24.543947 20.7222766,24.5829045 20.6833191,24.6211537 C20.6549864,24.6480698 20.6273619,24.6764026 20.6004458,24.7011937 C20.5621966,24.7387346 20.5239474,24.7720256 20.4864065,24.8060249 C20.4601987,24.8286911 20.4346993,24.8527739 20.4091998,24.8754401 C20.3716589,24.9080227 20.3355347,24.9370638 20.2994104,24.9668132 C20.2760359,24.9859378 20.2526614,25.006479 20.2292869,25.024187 C20.1910377,25.0539364 20.1556218,25.0801442 20.1202058,25.106352 C20.1017895,25.1205183 20.0819566,25.135393 20.0642487,25.1488511 C20.0252911,25.1771838 19.9891669,25.201975 19.9530426,25.2253495 C19.9402929,25.2338493 19.9261265,25.2437658 19.9140851,25.2515573 C19.8673361,25.282015 19.8241287,25.3103477 19.7837545,25.3344305 L17.6021333,23.4340118 C18.9196058,22.989896 21.0792692,22.0924564 21.6600904,20.8755651 Z M10.3092852,23.3915127 C10.353201,23.4765109 10.397825,23.5579675 10.4424491,23.6394242 C10.4948647,23.7329222 10.5479886,23.8242953 10.6018208,23.9128351 C10.6478615,23.9872086 10.6939022,24.0608737 10.7406512,24.1331222 C10.7959001,24.2167038 10.8504406,24.2960355 10.9063978,24.3753672 C10.9538551,24.4419491 11.0006042,24.5071144 11.0480615,24.5694465 C11.104727,24.6431116 11.1599758,24.7139435 11.2166413,24.781942 C11.2640987,24.8400242 11.3108477,24.8981063 11.358305,24.9519385 C11.4149705,25.0171038 11.4709277,25.0780192 11.5261765,25.1382263 C11.5722172,25.1878086 11.618258,25.2380992 11.6635903,25.2841399 C11.7195475,25.3408054 11.774088,25.3925127 11.8286286,25.4449282 C11.8732526,25.486719 11.9171684,25.5285098 11.9596675,25.5674673 C12.0149164,25.6163413 12.0666236,25.6609654 12.1197475,25.7048811 C12.1601217,25.7395888 12.2004958,25.7742964 12.238745,25.8054624 C12.2918689,25.8479615 12.3414512,25.8847941 12.3910335,25.922335 C12.4264494,25.9485427 12.4625737,25.9761672 12.4958647,26.00025 C12.545447,26.0356659 12.590071,26.0661236 12.6361117,26.0965813 C12.6658611,26.1164142 12.6956105,26.1383721 12.7239433,26.1553718 C12.7692756,26.1851211 12.8096498,26.209204 12.850024,26.2332868 C12.8719818,26.2467449 12.8960647,26.2616195 12.9166059,26.273661 C12.9583967,26.2970355 12.992396,26.3168684 13.0263953,26.3345764 C13.0405617,26.3416595 13.0561447,26.3508677 13.0688944,26.3572426 C13.1050186,26.3756588 13.1333514,26.3898252 13.1574342,26.4011583 C13.1623925,26.4039916 13.1694756,26.4082415 13.1737255,26.4096581 C13.1999333,26.4224079 13.2176413,26.4294911 13.2247245,26.4330326 C13.2820983,26.4564072 13.3430137,26.4663236 13.4032208,26.4684486 C13.410304,26.4691569 13.4173871,26.4726985 13.4244703,26.4726985 C13.4343868,26.4726985 13.4443032,26.4677403 13.4542197,26.4677403 C13.4938855,26.464907 13.5314264,26.4578238 13.5696756,26.447199 C13.585967,26.4422408 13.6022583,26.4386992 13.6185496,26.4323243 C13.6702569,26.4117831 13.7198392,26.384867 13.7630466,26.3473261 L16.5679882,23.9043353 L19.373638,26.3473261 C19.5209683,26.4762401 19.7299223,26.5095311 19.9112518,26.433741 C19.918335,26.4301994 19.936043,26.4224079 19.9615425,26.4103665 C19.967209,26.4075332 19.9764172,26.4025749 19.9835003,26.40045 C20.0068749,26.3884086 20.0323743,26.3763672 20.0663736,26.3586592 C20.0798317,26.3508677 20.0975396,26.3409512 20.1131226,26.3324514 C20.1457053,26.3147434 20.178288,26.2970355 20.2179538,26.2743693 C20.2399117,26.2616195 20.2647028,26.2467449 20.2880773,26.2318702 C20.3277432,26.2084957 20.3659924,26.1851211 20.4106164,26.1567884 C20.4396575,26.1390804 20.4708235,26.1164142 20.5012812,26.095873 C20.5459053,26.0654153 20.5905294,26.0363742 20.6394033,26.0016666 C20.6734026,25.9768755 20.7102352,25.9485427 20.7463595,25.9216266 C20.7952334,25.8840857 20.8441074,25.8479615 20.8958147,25.806879 C20.9354805,25.7742964 20.976563,25.7388804 21.0183538,25.7041728 C21.070061,25.6602571 21.12106,25.6170496 21.1748922,25.5695923 C21.2188079,25.5292181 21.263432,25.486719 21.3087644,25.4428033 C21.3618883,25.3925127 21.4157205,25.3415137 21.4709694,25.2855566 C21.5177184,25.2388075 21.5644674,25.1878086 21.6112164,25.1368096 C21.6664653,25.0773109 21.7210058,25.0178121 21.7762547,24.9540635 C21.8244203,24.8988146 21.872586,24.8400242 21.9207517,24.7812337 C21.9767088,24.7132351 22.0312493,24.6445282 22.0864982,24.5715714 C22.1353722,24.5078228 22.1828295,24.4412408 22.2309952,24.3739505 C22.2855357,24.2967438 22.3393679,24.2174121 22.3932001,24.1352472 C22.4406575,24.0629987 22.4881148,23.9879169 22.5355722,23.9114185 C22.5886961,23.8242953 22.6404033,23.7357555 22.6914023,23.6436741 C22.735318,23.5664674 22.7785254,23.4871357 22.8210246,23.405679 C22.6489031,26.2254953 21.5240932,30.609279 16.5672798,32.9141476 C11.5198017,30.5689048 10.4282827,26.1667049 10.2880357,23.3553884 C10.2951189,23.3667215 10.302202,23.3787629 10.3092852,23.3915127 Z M3.03131185,27.167559 C3.03131185,25.2784734 4.10583113,23.5374263 5.76754651,22.7320681 C6.63736172,22.3106185 7.59996667,21.9295431 8.62986188,21.5987584 C8.87281515,21.5215516 9.09381055,21.4535531 9.30772276,21.3905127 C9.14055957,23.5183017 9.2064332,29.4327618 14.4394908,32.9013979 C7.42147039,32.4990729 3.83737839,30.2027041 3.03202017,29.6140914 L3.03202017,27.167559 L3.03131185,27.167559 Z M30.1046645,29.6162163 C29.3035562,30.2062457 25.7421304,32.5011979 18.6964855,32.9028145 C23.9302515,29.4341785 23.9961251,23.5197183 23.8289619,21.391221 C24.0449991,21.455678 24.2695361,21.5236766 24.5160309,21.6023 C25.5438012,21.9330847 26.5035728,22.3127435 27.3684298,22.7327764 L27.3684298,22.7327764 C29.0308535,23.5381346 30.1046645,25.2784734 30.1046645,27.1682673 L30.1046645,29.6162163 Z" id="teacher"></path>
        </g>
    </g>
</svg>