<?xml version="1.0" encoding="UTF-8"?>
<svg width="34px" height="34px" viewBox="0 0 34 34" version="1.1" xmlns="http://www.w3.org/2000/svg" xmlns:xlink="http://www.w3.org/1999/xlink">
    <!-- Generator: Sketch 46.2 (44496) - http://www.bohemiancoding.com/sketch -->
    <title>Features - Icon</title>
    <desc>Created with Sketch.</desc>
    <defs></defs>
    <g id="Page-1" stroke="none" stroke-width="1" fill="none" fill-rule="evenodd">
        <g id="Features---Icon" fill-rule="nonzero" fill="#462FF4">
            <g id="Scheduling">
                <path d="M30.1871429,1.36832653 L28.1686531,1.36832653 L28.1686531,0.610612245 C28.1686531,0.333061224 27.9431429,0.106163265 27.6635102,0.106163265 C27.3852653,0.106163265 27.1590612,0.332367347 27.1590612,0.610612245 L27.1590612,1.36832653 L22.8695102,1.36832653 L22.8695102,0.610612245 C22.8695102,0.333061224 22.644,0.106163265 22.3650612,0.106163265 C22.0861224,0.106163265 21.8599184,0.332367347 21.8599184,0.610612245 L21.8599184,1.36832653 L17.5703673,1.36832653 L17.5703673,0.610612245 C17.5703673,0.333061224 17.3448571,0.106163265 17.0652245,0.106163265 C16.7862857,0.106163265 16.5607755,0.332367347 16.5607755,0.610612245 L16.5607755,1.36832653 L12.2712245,1.36832653 L12.2712245,0.610612245 C12.2712245,0.333061224 12.0457143,0.106163265 11.7667755,0.106163265 C11.4878367,0.106163265 11.2616327,0.332367347 11.2616327,0.610612245 L11.2616327,1.36832653 L6.97208163,1.36832653 L6.97208163,0.610612245 C6.97208163,0.333061224 6.74587755,0.106163265 6.46693878,0.106163265 C6.188,0.106163265 5.9624898,0.332367347 5.9624898,0.610612245 L5.9624898,1.36832653 L3.944,1.36832653 C1.99628571,1.36832653 0.411469388,2.95244898 0.411469388,4.90016327 L0.411469388,5.65787755 L0.411469388,29.8797551 C0.411469388,31.8281633 1.99697959,33.4129796 3.944,33.4129796 L30.1850612,33.4129796 C32.1334694,33.4129796 33.7175918,31.8281633 33.7175918,29.8797551 L33.7175918,5.65787755 L33.7175918,4.90016327 C33.7196735,2.95244898 32.135551,1.36832653 30.1871429,1.36832653 Z M1.42314286,4.90016327 C1.42314286,3.50963265 2.55485714,2.37791837 3.94608163,2.37791837 L5.96457143,2.37791837 L5.96457143,3.1342449 C5.96457143,3.4124898 6.19008163,3.63938776 6.46902041,3.63938776 C6.74726531,3.63938776 6.97416327,3.41318367 6.97416327,3.1342449 L6.97416327,2.37791837 L11.2637143,2.37791837 L11.2637143,3.1342449 C11.2637143,3.4124898 11.4892245,3.63938776 11.7688571,3.63938776 C12.0477959,3.63938776 12.2733061,3.41318367 12.2733061,3.1342449 L12.2733061,2.37791837 L16.5628571,2.37791837 L16.5628571,3.1342449 C16.5628571,3.4124898 16.7883673,3.63938776 17.0673061,3.63938776 C17.3462449,3.63938776 17.572449,3.41318367 17.572449,3.1342449 L17.572449,2.37791837 L21.862,2.37791837 L21.862,3.1342449 C21.862,3.4124898 22.0875102,3.63938776 22.3671429,3.63938776 C22.6460816,3.63938776 22.8715918,3.41318367 22.8715918,3.1342449 L22.8715918,2.37791837 L27.1611429,2.37791837 L27.1611429,3.1342449 C27.1611429,3.4124898 27.3873469,3.63938776 27.6655918,3.63938776 C27.9445306,3.63938776 28.1707347,3.41318367 28.1707347,3.1342449 L28.1707347,2.37791837 L30.1892245,2.37791837 C31.580449,2.37791837 32.7128571,3.50963265 32.7128571,4.90016327 L32.7128571,5.15273469 L1.42522449,5.15273469 L1.42522449,4.90016327 L1.42314286,4.90016327 Z M32.7107755,29.8797551 C32.7107755,31.2716735 31.5790612,32.4033878 30.1871429,32.4033878 L3.94608163,32.4033878 C2.55485714,32.4033878 1.42314286,31.2716735 1.42314286,29.8797551 L1.42314286,6.16163265 L32.7107755,6.16163265 L32.7107755,29.8797551 Z" id="Shape"></path>
                <path d="M4.54489796,30.3855918 L10.4109388,30.3855918 C10.6898776,30.3855918 10.9160816,30.1593878 10.9160816,29.8797551 L10.9160816,24.9157551 C10.9160816,24.6375102 10.6905714,24.4106122 10.4109388,24.4106122 L4.54489796,24.4106122 C4.26595918,24.4106122 4.0397551,24.6368163 4.0397551,24.9157551 L4.0397551,29.8797551 C4.04044898,30.1586939 4.26595918,30.3855918 4.54489796,30.3855918 Z M5.05004082,25.4195102 L9.90718367,25.4195102 L9.90718367,29.3753061 L5.05004082,29.3753061 L5.05004082,25.4195102 Z" id="Shape"></path>
                <path d="M14.1335918,30.3855918 L20.0003265,30.3855918 C20.2785714,30.3855918 20.5054694,30.1593878 20.5054694,29.8797551 L20.5054694,24.9157551 C20.5054694,24.6375102 20.2792653,24.4106122 20.0003265,24.4106122 L14.1335918,24.4106122 C13.8553469,24.4106122 13.6291429,24.6368163 13.6291429,24.9157551 L13.6291429,29.8797551 C13.6291429,30.1586939 13.8546531,30.3855918 14.1335918,30.3855918 Z M14.6380408,25.4195102 L19.4951837,25.4195102 L19.4951837,29.3753061 L14.6380408,29.3753061 L14.6380408,25.4195102 Z" id="Shape"></path>
                <path d="M4.54489796,22.2693061 L10.4109388,22.2693061 C10.6898776,22.2693061 10.9160816,22.0437959 10.9160816,21.7641633 L10.9160816,16.8001633 C10.9160816,16.5219184 10.6905714,16.2950204 10.4109388,16.2950204 L4.54489796,16.2950204 C4.26595918,16.2950204 4.0397551,16.5212245 4.0397551,16.8001633 L4.0397551,21.7641633 C4.04044898,22.0437959 4.26595918,22.2693061 4.54489796,22.2693061 Z M5.05004082,17.3046122 L9.90718367,17.3046122 L9.90718367,21.2604082 L5.05004082,21.2604082 L5.05004082,17.3046122 Z" id="Shape"></path>
                <path d="M14.1335918,22.2693061 L20.0003265,22.2693061 C20.2785714,22.2693061 20.5054694,22.0437959 20.5054694,21.7641633 L20.5054694,16.8001633 C20.5054694,16.5219184 20.2792653,16.2950204 20.0003265,16.2950204 L19.4882449,16.2950204 L19.8428163,15.6587347 C19.9781224,15.4151837 19.8906939,15.1077959 19.6471429,14.9731837 C19.4022041,14.8378776 19.0962041,14.9253061 18.9615918,15.1681633 L18.3336327,16.2950204 L14.1342857,16.2950204 C13.8560408,16.2950204 13.6298367,16.5212245 13.6298367,16.8001633 L13.6298367,21.7641633 C13.6291429,22.0437959 13.8546531,22.2693061 14.1335918,22.2693061 Z M14.6380408,17.3046122 L17.7715918,17.3046122 L16.7023265,19.2252653 L16.1805306,18.3162857 C16.0410612,18.0741224 15.7329796,17.9908571 15.4908163,18.1303265 C15.2493469,18.269102 15.1660816,18.5785714 15.3048571,18.8193469 L16.2728163,20.5013061 C16.3630204,20.6581224 16.5302449,20.7545714 16.7106531,20.7545714 C16.7113469,20.7545714 16.7127347,20.7545714 16.7141224,20.7545714 C16.8959184,20.7531837 17.062449,20.6532653 17.1519592,20.4950612 L18.926898,17.3039184 L19.4958776,17.3039184 L19.4958776,21.2597143 L14.6387347,21.2597143 L14.6387347,17.3046122 L14.6380408,17.3046122 Z" id="Shape"></path>
                <path d="M23.7229796,22.2693061 L29.5890204,22.2693061 C29.8679592,22.2693061 30.0941633,22.0437959 30.0941633,21.7641633 L30.0941633,16.8001633 C30.0941633,16.5219184 29.8686531,16.2950204 29.5890204,16.2950204 L23.7229796,16.2950204 C23.4440408,16.2950204 23.2178367,16.5212245 23.2178367,16.8001633 L23.2178367,21.7641633 C23.2178367,22.0437959 23.4440408,22.2693061 23.7229796,22.2693061 Z M24.2281224,17.3046122 L29.0852653,17.3046122 L29.0852653,21.2604082 L24.2281224,21.2604082 L24.2281224,17.3046122 Z" id="Shape"></path>
                <path d="M14.1335918,14.155102 L20.0003265,14.155102 C20.2785714,14.155102 20.5054694,13.928898 20.5054694,13.6492653 L20.5054694,8.68526531 C20.5054694,8.40702041 20.2792653,8.18012245 20.0003265,8.18012245 L14.1335918,8.18012245 C13.8553469,8.18012245 13.6291429,8.40632653 13.6291429,8.68526531 L13.6291429,13.6492653 C13.6291429,13.928898 13.8546531,14.155102 14.1335918,14.155102 Z M14.6380408,9.18971429 L19.4951837,9.18971429 L19.4951837,13.1455102 L14.6380408,13.1455102 L14.6380408,9.18971429 Z" id="Shape"></path>
                <path d="M23.7229796,14.155102 L29.5890204,14.155102 C29.8679592,14.155102 30.0941633,13.928898 30.0941633,13.6492653 L30.0941633,8.68526531 C30.0941633,8.40702041 29.8686531,8.18012245 29.5890204,8.18012245 L23.7229796,8.18012245 C23.4440408,8.18012245 23.2178367,8.40632653 23.2178367,8.68526531 L23.2178367,13.6492653 C23.2178367,13.928898 23.4440408,14.155102 23.7229796,14.155102 Z M24.2281224,9.18971429 L29.0852653,9.18971429 L29.0852653,13.1455102 L24.2281224,13.1455102 L24.2281224,9.18971429 Z" id="Shape"></path>
            </g>
        </g>
    </g>
</svg>