<?xml version="1.0" encoding="UTF-8"?>
<svg width="34px" height="34px" viewBox="0 0 34 34" version="1.1" xmlns="http://www.w3.org/2000/svg" xmlns:xlink="http://www.w3.org/1999/xlink">
    <!-- Generator: Sketch 46.2 (44496) - http://www.bohemiancoding.com/sketch -->
    <title>Features - Icon</title>
    <desc>Created with Sketch.</desc>
    <defs></defs>
    <g id="Page-1" stroke="none" stroke-width="1" fill="none" fill-rule="evenodd">
        <g id="Features---Icon" fill-rule="nonzero" fill="#462FF4">
            <g id="Homework">
                <path d="M31.45,3.84616327 L27.4990612,3.84616327 C27.2575918,3.26885714 26.6872245,2.86085714 26.0238776,2.86085714 L23.9616735,2.86085714 C23.7215918,1.46477551 22.5017551,0.398979592 21.0376735,0.398979592 C19.5735918,0.398979592 18.354449,1.46477551 18.1143673,2.86085714 L16.0521633,2.86085714 C15.3881224,2.86085714 14.8177551,3.26885714 14.5762857,3.84616327 L10.6253469,3.84616327 C9.54983673,3.84616327 8.67416327,4.72114286 8.67416327,5.79734694 L8.67416327,31.7539184 C8.67416327,32.8308163 9.54983673,33.7057959 10.6253469,33.7057959 L31.4506939,33.7057959 C32.5262041,33.7057959 33.4018776,32.8308163 33.4018776,31.7539184 L33.4018776,5.79734694 C33.4011837,4.72114286 32.5255102,3.84616327 31.45,3.84616327 Z M14.654,7.47930612 C14.9253061,7.97612245 15.447102,8.31889796 16.0521633,8.31889796 L26.0245714,8.31889796 C26.6296327,8.31889796 27.1507347,7.97612245 27.4220408,7.47930612 L28.8916735,7.47930612 L28.8916735,28.6744898 L13.1836735,28.6744898 L13.1836735,7.47930612 L14.654,7.47930612 Z M15.4616735,4.46093878 C15.4616735,4.1355102 15.7260408,3.87044898 16.0514694,3.87044898 L18.575102,3.87044898 C18.8533469,3.87044898 19.079551,3.64493878 19.079551,3.366 C19.079551,2.28632653 19.958,1.40857143 21.0369796,1.40857143 C22.1173469,1.40857143 22.995102,2.28702041 22.995102,3.366 C22.995102,3.6442449 23.2206122,3.87044898 23.499551,3.87044898 L26.0231837,3.87044898 C26.3486122,3.87044898 26.6129796,4.1355102 26.6129796,4.46093878 L26.6129796,6.71881633 C26.6129796,7.0442449 26.3486122,7.30930612 26.0231837,7.30930612 L16.0507755,7.30930612 C15.7253469,7.30930612 15.4609796,7.0442449 15.4609796,6.71881633 L15.4609796,4.46093878 L15.4616735,4.46093878 Z M32.3915918,31.7539184 C32.3915918,32.2736327 31.9697143,32.6962041 31.45,32.6962041 L10.6246531,32.6962041 C10.1049388,32.6962041 9.68306122,32.2736327 9.68306122,31.7539184 L9.68306122,5.79734694 C9.68306122,5.27832653 10.1056327,4.8557551 10.6246531,4.8557551 L14.4527755,4.8557551 L14.4527755,6.47040816 L12.6792245,6.47040816 C12.4002857,6.47040816 12.1747755,6.69661224 12.1747755,6.97555102 L12.1747755,29.1789388 C12.1747755,29.4578776 12.4002857,29.6847755 12.6792245,29.6847755 L29.3954286,29.6847755 C29.6743673,29.6847755 29.9005714,29.4585714 29.9005714,29.1789388 L29.9005714,6.97555102 C29.9005714,6.69730612 29.6750612,6.47040816 29.3954286,6.47040816 L27.6225714,6.47040816 L27.6225714,4.8557551 L31.45,4.8557551 C31.9697143,4.8557551 32.3915918,5.27832653 32.3915918,5.79734694 L32.3915918,31.7539184 L32.3915918,31.7539184 Z" id="Shape"></path>
                <path d="M15.577551,13.3980816 C15.6733061,13.5153469 15.8169388,13.5826531 15.9675102,13.5826531 C15.9765306,13.5826531 15.9862449,13.5819592 15.9959592,13.5819592 C16.1562449,13.5722449 16.3033469,13.486898 16.3907755,13.3522857 L17.7133061,11.3115918 C17.8652653,11.0777551 17.7986531,10.7655102 17.5648163,10.6128571 C17.3309796,10.4615918 17.0180408,10.528898 16.8674694,10.7627347 L15.9189388,12.2247347 L15.5275918,11.7480408 C15.3513469,11.5329388 15.0328571,11.5017143 14.8177551,11.6786531 C14.6019592,11.8555918 14.5714286,12.1733878 14.7483673,12.3884898 L15.577551,13.3980816 Z" id="Shape"></path>
                <path d="M15.577551,18.246898 C15.6733061,18.3634694 15.8169388,18.4314694 15.9675102,18.4314694 C15.9765306,18.4314694 15.9862449,18.4307755 15.9959592,18.4307755 C16.1562449,18.4217551 16.3033469,18.3364082 16.3907755,18.201102 L17.7133061,16.1604082 C17.8652653,15.9265714 17.7986531,15.6136327 17.5648163,15.4623673 C17.3309796,15.3104082 17.0180408,15.3770204 16.8674694,15.611551 L15.9189388,17.073551 L15.5275918,16.5968571 C15.3513469,16.382449 15.0328571,16.3505306 14.8177551,16.5274694 C14.6019592,16.7044082 14.5714286,17.022898 14.7483673,17.2366122 L15.577551,18.246898 Z" id="Shape"></path>
                <path d="M15.577551,23.1859184 C15.6733061,23.3031837 15.8169388,23.3711837 15.9675102,23.3711837 C15.9765306,23.3711837 15.9862449,23.3704898 15.9959592,23.3704898 C16.1562449,23.3607755 16.3033469,23.2754286 16.3907755,23.1408163 L17.7133061,21.1001224 C17.8652653,20.8655918 17.7986531,20.5533469 17.5648163,20.4013878 C17.3309796,20.2494286 17.0187347,20.3174286 16.8674694,20.5505714 L15.9189388,22.0125714 L15.5275918,21.5365714 C15.3513469,21.3214694 15.0328571,21.289551 14.8177551,21.4664898 C14.6019592,21.6441224 14.5714286,21.9612245 14.7483673,22.1763265 L15.577551,23.1859184 Z" id="Shape"></path>
                <path d="M4.19726531,3.60261224 L2.32310204,3.60261224 C1.37873469,3.60261224 0.611306122,4.36934694 0.611306122,5.31440816 L0.611306122,16.3963265 C0.611306122,16.6745714 0.836816327,16.9014694 1.1157551,16.9014694 L1.258,16.9014694 L1.258,19.3924898 C1.258,19.4563265 1.26355102,25.8219592 1.74995918,29.7715102 C1.82767347,30.4064082 1.91857143,30.9677551 2.01987755,31.438898 C2.06983673,31.6713469 2.27591837,31.8371837 2.51322449,31.8371837 L2.75608163,31.8371837 L2.75608163,33.2020408 C2.75608163,33.4802857 2.98159184,33.7064898 3.26053061,33.7064898 C3.53946939,33.7064898 3.76567347,33.4809796 3.76567347,33.2020408 L3.76567347,31.8371837 L4.00783673,31.8371837 C4.24653061,31.8371837 4.45191837,31.6713469 4.50118367,31.438898 C4.6024898,30.9670612 4.69338776,30.4064082 4.77110204,29.7722041 C5.2575102,25.8219592 5.26306122,19.4563265 5.26306122,19.3924898 L5.26306122,16.9014694 L5.40530612,16.9014694 C5.6842449,16.9014694 5.91044898,16.6752653 5.91044898,16.3963265 L5.91044898,5.31440816 C5.9097551,4.36934694 5.14163265,3.60261224 4.19726531,3.60261224 Z M1.62020408,5.31440816 C1.62020408,4.92653061 1.93591837,4.6115102 2.32310204,4.6115102 L4.19726531,4.6115102 C4.58514286,4.6115102 4.90016327,4.92653061 4.90016327,5.31440816 L4.90016327,15.8911837 L4.75791837,15.8911837 L1.7617551,15.8911837 L1.62020408,15.8911837 L1.62020408,5.31440816 Z M4.25277551,19.3917959 C4.25277551,19.4556327 4.24791837,25.7595102 3.76914286,29.648 C3.71571429,30.0802857 3.65673469,30.475102 3.59289796,30.826898 L2.92746939,30.826898 C2.86363265,30.475102 2.80395918,30.0802857 2.75122449,29.648 C2.27244898,25.7595102 2.26689796,19.4556327 2.26689796,19.3917959 L2.26689796,16.9007755 L4.25346939,16.9007755 L4.25346939,19.3917959 L4.25277551,19.3917959 Z" id="Shape"></path>
                <path d="M3.25983673,14.8746531 C3.53877551,14.8746531 3.76497959,14.6491429 3.76497959,14.3702041 L3.76497959,6.13179592 C3.76497959,5.85355102 3.53946939,5.62734694 3.25983673,5.62734694 C2.98089796,5.62734694 2.75538776,5.85285714 2.75538776,6.13179592 L2.75538776,14.3702041 C2.75538776,14.6491429 2.98089796,14.8746531 3.25983673,14.8746531 Z" id="Shape"></path>
                <path d="M19.6533878,12.5619592 L26.2979592,12.5619592 C26.5762041,12.5619592 26.803102,12.3357551 26.803102,12.0568163 C26.803102,11.7778776 26.576898,11.5523673 26.2979592,11.5523673 L19.6533878,11.5523673 C19.374449,11.5523673 19.1482449,11.7778776 19.1482449,12.0568163 C19.1482449,12.3357551 19.374449,12.5619592 19.6533878,12.5619592 Z" id="Shape"></path>
                <path d="M19.6533878,17.4100816 L23.7750204,17.4100816 C24.0539592,17.4100816 24.2794694,17.1845714 24.2794694,16.9056327 C24.2794694,16.6266939 24.0539592,16.4004898 23.7750204,16.4004898 L19.6533878,16.4004898 C19.374449,16.4004898 19.1482449,16.6266939 19.1482449,16.9056327 C19.1482449,17.1845714 19.374449,17.4100816 19.6533878,17.4100816 Z" id="Shape"></path>
                <path d="M19.6533878,22.3497959 L25.2890612,22.3497959 C25.5673061,22.3497959 25.7942041,22.1235918 25.7942041,21.8446531 C25.7942041,21.5657143 25.568,21.3395102 25.2890612,21.3395102 L19.6533878,21.3395102 C19.374449,21.3395102 19.1482449,21.5657143 19.1482449,21.8446531 C19.1482449,22.1235918 19.374449,22.3497959 19.6533878,22.3497959 Z" id="Shape"></path>
            </g>
        </g>
    </g>
</svg>