<?xml version="1.0" encoding="UTF-8"?>
<svg width="130px" height="31px" viewBox="0 0 130 31" version="1.1" xmlns="http://www.w3.org/2000/svg" xmlns:xlink="http://www.w3.org/1999/xlink">
    <!-- Generator: Sketch 46.2 (44496) - http://www.bohemiancoding.com/sketch -->
    <title>Main website Logo - SVG</title>
    <desc>Created with Sketch.</desc>
    <defs></defs>
    <g id="Page-1" stroke="none" stroke-width="1" fill="none" fill-rule="evenodd">
        <g id="Main-website-Logo---SVG" fill="#FFFFFF">
            <path d="M14.9488203,9.17741935 L14.9488203,7.29032258 L1.43140681,7.29032258 L1.43140681,11.2822581 L8.71738853,11.2822581 L1,23.1612903 L1,24.7096774 L15.4521282,24.7096774 L15.4521282,20.4516129 L7.71077264,20.4516129 L14.9488203,9.17741935 Z M26.9283484,12.3951613 L31.1944825,12.3951613 L31.1944825,24.7096774 L27.0002496,24.7096774 L26.7845462,23.3790323 C25.7299962,24.5887097 24.1481712,25 22.7820496,25 C19.282861,25 17.1977281,22.1209677 17.1977281,18.5645161 C17.1977281,14.9112903 19.282861,12.1048387 23.1175883,12.1048387 C24.8671826,12.1048387 26.0415678,12.733871 26.688678,13.7258065 L26.9283484,12.3951613 Z M24.1481712,15.8306452 C22.7820496,15.8306452 21.7035326,16.8467742 21.7035326,18.5645161 C21.7035326,20.2822581 22.7820496,21.25 24.1481712,21.25 C25.6820621,21.25 26.664711,20.016129 26.664711,18.5645161 C26.664711,16.8951613 25.7539632,15.8306452 24.1481712,15.8306452 Z M45.6186493,22.9193548 L43.0302084,20.1612903 C42.4070652,20.8387097 41.6161527,21.2016129 40.7533391,21.2016129 C39.0516789,21.2016129 38.1169641,19.9193548 38.1169641,18.6129032 C38.1169641,17.0403226 39.0277119,15.7580645 40.7773061,15.7580645 C41.5921857,15.7580645 42.2153289,16.0725806 42.7905379,16.6532258 L45.2112095,14.016129 C43.9169891,12.733871 42.28723,12.1048387 40.5136686,12.1048387 C37.0624142,12.1048387 33.6830608,14.0887097 33.6830608,18.5887097 C33.6830608,23.1854839 37.0384471,25 40.5855698,25 C42.4310323,25 44.1566595,24.2258065 45.6186493,22.9193548 Z M52.2535264,7.29032258 L47.6758208,7.29032258 L47.6758208,24.7096774 L52.2295593,24.7096774 L52.2295593,18.2016129 C52.2535264,16.7258065 53.2361752,16.0967742 54.1229559,16.0967742 C55.0576707,16.0967742 55.776682,16.5080645 55.776682,17.9112903 L55.776682,24.7096774 L60.3064535,24.7096774 L60.3064535,17.6451613 C60.3064535,13.3387097 58.0056172,12.1290323 55.6808138,12.1290323 C54.2667582,12.1290323 53.11634,12.6370968 52.2535264,13.7258065 L52.2535264,7.29032258 Z M78.9488203,22.266129 L76.0727749,19.0241935 C74.8264885,20.3064516 73.1967294,20.766129 71.9983772,20.766129 C68.5950568,20.766129 67.3967045,18.25 67.3967045,16 C67.3967045,13.7258065 68.6429909,11.2580645 71.9983772,11.2580645 C73.1727624,11.2580645 74.2992135,11.5967742 75.5694669,12.7822581 L78.4934464,9.80645161 C76.5041817,7.89516129 74.5149169,7 71.9983772,7 C65.5033079,7 62.5553614,11.4758065 62.5553614,15.9758065 C62.5553614,20.6935484 65.2396705,25 71.9983772,25 C74.6587192,25 76.9835226,24.25 78.9488203,22.266129 Z M85.5117962,7.24193548 L81.0299588,7.24193548 L81.0299588,24.7096774 L85.5117962,24.7096774 L85.5117962,7.24193548 Z M97.7549619,12.3951613 L102.021096,12.3951613 L102.021096,24.7096774 L97.8268631,24.7096774 L97.6111597,23.3790323 C96.5566097,24.5887097 94.9747847,25 93.6086631,25 C90.1094745,25 88.0243416,22.1209677 88.0243416,18.5645161 C88.0243416,14.9112903 90.1094745,12.1048387 93.9442017,12.1048387 C95.693796,12.1048387 96.8681813,12.733871 97.5152915,13.7258065 L97.7549619,12.3951613 Z M94.9747847,15.8306452 C93.6086631,15.8306452 92.5301461,16.8467742 92.5301461,18.5645161 C92.5301461,20.2822581 93.6086631,21.25 94.9747847,21.25 C96.5086756,21.25 97.4913244,20.016129 97.4913244,18.5645161 C97.4913244,16.8951613 96.5805767,15.8306452 94.9747847,15.8306452 Z M105.779928,20.0645161 L104.317938,23.3790323 C105.708027,24.4193548 108.080764,25 110.213831,25 C113.161778,25 115.894021,23.9112903 115.894021,20.8387097 C115.894021,17.5967742 112.826239,16.8709677 110.285732,16.7741935 C109.518787,16.75 109.374984,16.4112903 109.374984,16.1935484 C109.374984,15.7822581 109.782424,15.5887097 110.453501,15.5887097 C111.460117,15.5887097 112.89814,15.9032258 113.593184,16.3387097 L115.294845,13.4354839 C114.120459,12.5403226 112.418799,12.1048387 110.453501,12.1048387 C107.601423,12.1048387 104.821246,13.1693548 104.821246,16.1451613 C104.821246,19.1209677 107.697291,20.0887097 110.070029,20.1854839 C110.932842,20.2096774 111.340282,20.4758065 111.340282,20.8387097 C111.340282,21.25 110.932842,21.4435484 110.117963,21.4435484 C109.111347,21.4435484 107.673324,21.2983871 105.779928,20.0645161 Z M118.885907,20.0645161 L117.423917,23.3790323 C118.814006,24.4193548 121.186743,25 123.31981,25 C126.267757,25 129,23.9112903 129,20.8387097 C129,17.5967742 125.932218,16.8709677 123.391711,16.7741935 C122.624766,16.75 122.480964,16.4112903 122.480964,16.1935484 C122.480964,15.7822581 122.888403,15.5887097 123.559481,15.5887097 C124.566097,15.5887097 126.004119,15.9032258 126.699164,16.3387097 L128.400824,13.4354839 C127.226439,12.5403226 125.524778,12.1048387 123.559481,12.1048387 C120.707402,12.1048387 117.927225,13.1693548 117.927225,16.1451613 C117.927225,19.1209677 120.803271,20.0887097 123.176008,20.1854839 C124.038822,20.2096774 124.446261,20.4758065 124.446261,20.8387097 C124.446261,21.25 124.038822,21.4435484 123.223942,21.4435484 C122.217326,21.4435484 120.779304,21.2983871 118.885907,20.0645161 Z" id="ZachClass"></path>
        </g>
    </g>
</svg>